<svg xmlns="http://www.w3.org/2000/svg" viewBox="0 0 47.5 47.5">
  <defs>
    <clipPath id="a">
      <path d="M0 38h38V0H0v38z"/>
    </clipPath>
  </defs>
  <g clip-path="url(#a)" transform="matrix(1.25 0 0 -1.25 0 47.5)">
    <path fill="#ffcc4d" d="M36 19c0-9.389-7.611-17-17-17C9.612 2 2 9.611 2 19c0 9.388 7.612 17 17 17 9.389 0 17-7.612 17-17"/>
    <path fill="#664500" d="M11 24s0 2 2 2 2-2 2-2v-2s0-2-2-2-2 2-2 2v2zm12 0s0 2 2 2 2-2 2-2v-2s0-2-2-2-2 2-2 2v2zm5.335-9.6289c-.178.161-.444.171-.635.029-.039-.029-3.922-2.9-8.7-2.9-4.766 0-8.662 2.871-8.7 2.9-.191.142-.457.13-.635-.029-.177-.16-.217-.424-.094-.628.129-.215 3.217-5.243 9.429-5.243s9.301 5.028 9.429 5.243c.123.205.084.468-.094.628"/>
  </g>
</svg>
