<svg xmlns="http://www.w3.org/2000/svg" viewBox="0 0 47.5 47.5">
  <defs>
    <clipPath id="a">
      <path d="M0 38h38V0H0v38z"/>
    </clipPath>
  </defs>
  <g clip-path="url(#a)" transform="matrix(1.25 0 0 -1.25 0 47.5)">
    <path fill="#fdcb58" d="M36 19c0-9.389-7.611-17-17-17C9.612 2 2 9.611 2 19c0 9.388 7.612 17 17 17 9.389 0 17-7.612 17-17"/>
    <path fill="#664500" d="M26.4854 7.1211c-.045.179-1.168 4.379-7.485 4.379-6.318 0-7.441-4.2-7.485-4.379-.055-.217.043-.442.237-.554.195-.109.439-.079.599.077.019.019 1.954 1.856 6.649 1.856 4.694 0 6.63-1.837 6.648-1.856.096-.094.224-.144.352-.144.084 0 .169.021.246.064.196.112.294.339.239.557M16.707 19.707C13.452 22.962 8.221 23 8 23c-.552 0-.999-.447-.999-.999-.001-.551.446-1 .998-1.001.029 0 1.925-.022 3.983-.737-.593-.64-.982-1.634-.982-2.763 0-1.934 1.119-3.5 2.5-3.5s2.5 1.566 2.5 3.5c0 .174-.019.34-.037.507.013 0 .025-.007.037-.007.256 0 .512.098.707.293.391.391.391 1.023 0 1.414M30 23c-.221 0-5.451-.038-8.707-3.293-.391-.391-.391-1.023 0-1.414.195-.195.451-.293.707-.293.013 0 .024.007.036.007-.016-.167-.036-.333-.036-.507 0-1.934 1.119-3.5 2.5-3.5s2.5 1.566 2.5 3.5c0 1.129-.389 2.123-.982 2.763 2.058.715 3.954.737 3.984.737.551.001.998.45.997 1.001-.001.552-.447.999-.999.999"/>
  </g>
</svg>
