<svg xmlns="http://www.w3.org/2000/svg" viewBox="0 0 47.5 47.5">
  <defs>
    <clipPath id="a">
      <path d="M0 38h38V0H0v38z"/>
    </clipPath>
  </defs>
  <g clip-path="url(#a)" transform="matrix(1.25 0 0 -1.25 0 47.5)">
    <path fill="#ffcc4d" d="M36 19c0-9.389-7.611-17-17-17S2 9.611 2 19s7.611 17 17 17 17-7.611 17-17"/>
    <path fill="#664500" d="M22 11.5C22 9.566 20.655 8 19 8c-1.657 0-3 1.566-3 3.5 0 1.932 1.343 3.5 3 3.5 1.655 0 3-1.568 3-3.5m9.4995 14c-.305 0-.605.138-.801.4-2.64 3.521-6.061 3.599-6.206 3.6-.55.006-.994.456-.991 1.005.003.551.447.995.997.995.184 0 4.537-.05 7.8-4.4.332-.442.242-1.069-.2-1.4-.18-.135-.39-.2-.599-.2m-25.0004 0c-.208 0-.419.065-.599.2-.442.331-.531.958-.2 1.4 3.262 4.35 7.616 4.4 7.8 4.4.552 0 1-.448 1-1 0-.551-.445-.998-.996-1-.155-.002-3.568-.086-6.204-3.6-.197-.262-.497-.4-.801-.4M15 22c0-1.657-.96-3-2.143-3-1.184 0-2.143 1.343-2.143 3s.959 3 2.143 3C14.04 25 15 23.657 15 22m12 .2002c0-1.547-.895-2.8-2-2.8-1.104 0-2 1.253-2 2.8 0 1.546.896 2.8 2 2.8 1.105 0 2-1.254 2-2.8"/>
  </g>
</svg>
