<?xml version="1.0" encoding="utf-8"?>
<!-- Generator: Adobe Illustrator 19.0.0, SVG Export Plug-In . SVG Version: 6.00 Build 0)  -->
<svg version="1.1" id="Layer_1" xmlns="http://www.w3.org/2000/svg" xmlns:xlink="http://www.w3.org/1999/xlink" x="0px" y="0px"
	 viewBox="0 0 512 512" style="enable-background:new 0 0 512 512;" xml:space="preserve">
<style type="text/css">
	.st0{fill-rule:evenodd;clip-rule:evenodd;fill:#FFC537;}
	.st1{fill:#FFC537;}
	.st2{fill:#F8B51A;}
	.st3{fill:#2F3746;}
</style>
<path id="XMLID_15_" class="st0" d="M205.2,130.3c-25.5,10.4-22.2,68,7.4,128.7c29.6,60.7,74.4,101.5,99.9,91.2
	c25.5-10.4,22.2-68-7.4-128.7C275.5,160.7,230.7,119.9,205.2,130.3z"/>
<path id="XMLID_14_" class="st1" d="M161.5,227.5c-26.3,37.4-68.3,57.8-106.8,80C31.1,321,20.3,347,34.4,371.7
	c12.3,21.5,40.1,29.1,61.4,16.6c39.5-23,79.2-51.1,125.9-55.6c8.4-0.8,16.9-1,26-0.7c-32.4-33.8-59.7-84.6-70.9-130
	C171.9,211.3,166.9,219.7,161.5,227.5z"/>
<path id="XMLID_13_" class="st2" d="M126.1,331.3c-28.5,17-52.2,37.7-69.8,59.6c12.4,5.1,27,4.6,39.4-2.6
	c39.5-23,79.2-51.1,125.9-55.6c8.4-0.8,16.9-1,26-0.7c-9.9-10.3-19.3-22.2-27.9-35C189.9,301.2,157.4,312.6,126.1,331.3z"/>
<path id="XMLID_25_" class="st3" d="M224.2,115.1c-33.2-15.4-42.6,0.1-52.6,26.7c-11.1,29.7-21,51.7-33.2,69.1
	c-23.2,32.9-66,53.3-100.4,73.2C2.3,304.9-10.9,349.7,9.9,386c17.1,29.9,52.7,43.8,85.2,33.6l46.7,38.8c16.8,13.9,42.6,12.8,58-2.7
	c16.1-16.3,14.7-42.3-2.9-56.9l-25.7-21.3c18.2-9.5,34.8-14.6,52.9-16.3c21.1-2,45,0.4,76.2,5.5c25,5.8,46.4-7.5,48.3-34.7
	C353,269,281.7,141.8,224.2,115.1z M179.1,420.8c12.7,10.6-7.3,25.5-19.3,15.5l-37.1-30.7l22.3-13L179.1,420.8z M221.6,332.7
	c-46.6,4.5-86.3,32.6-125.9,55.6c-21.3,12.4-49.1,4.9-61.4-16.6C20.3,347,31.1,321,54.6,307.5c38.5-22.2,80.5-42.6,106.8-80
	c5.5-7.8,10.5-16.2,15.3-25.5c11.2,45.4,38.4,96.2,70.9,130C238.6,331.7,230,331.9,221.6,332.7z M320.5,330
	c-1.4,20.5-28.8,2.6-36.8-3.6c-15-11.6-29.1-29.5-41.1-47.7c0.2,0,0.5,0,0.7,0c16.8,0,30.5-13.8,30.5-30.8c0-17-13.6-30.8-30.5-30.8
	c-11.2,0-21,6.1-26.3,15.3c-11-26.6-21.5-64-16-87.3c1.6-6.5,6.4-6.4,11.4-4.1C258,162.2,323.8,280.8,320.5,330z"/>
<path id="XMLID_8_" class="st3" d="M70.4,314c-2.6,1.1-5.2,2.2-7.8,3.3c-4.5,1.9-6.7,7-4.8,11.6c1.8,4.6,7,6.7,11.5,4.9
	c2.7-1.1,5.3-2.2,8-3.4c4.5-1.9,6.6-7.1,4.7-11.7C80.1,314.2,74.9,312.1,70.4,314z"/>
<path id="XMLID_7_" class="st3" d="M155.5,262.7c-8.8,7.4-17.8,14.1-27.1,20.4c-9.3,6.2-19,12-29.4,17.4c-4.3,2.3-6,7.6-3.8,12
	c2.2,4.4,7.6,6.1,11.9,3.8c11-5.8,21.3-11.8,31.1-18.4c9.8-6.5,19.2-13.6,28.6-21.5c3.8-3.1,4.3-8.7,1.2-12.6
	C164.9,260.1,159.3,259.6,155.5,262.7z"/>
<path id="XMLID_6_" class="st3" d="M70.4,314c-2.6,1.1-5.2,2.2-7.8,3.3c-4.5,1.9-6.7,7-4.8,11.6c1.8,4.6,7,6.7,11.5,4.9
	c2.7-1.1,5.3-2.2,8-3.4c4.5-1.9,6.6-7.1,4.7-11.7C80.1,314.2,74.9,312.1,70.4,314z"/>
<path id="XMLID_5_" class="st1" d="M145,392.5l-22.3,13l37.1,30.7c12,9.9,32-5,19.3-15.5L145,392.5z"/>
<path id="XMLID_4_" class="st3" d="M155.5,262.7c-8.8,7.4-17.8,14.1-27.1,20.4c-9.3,6.2-19,12-29.4,17.4c-4.3,2.3-6,7.6-3.8,12
	c2.2,4.4,7.6,6.1,11.9,3.8c11-5.8,21.3-11.8,31.1-18.4c9.8-6.5,19.2-13.6,28.6-21.5c3.8-3.1,4.3-8.7,1.2-12.5
	C164.9,260.1,159.3,259.6,155.5,262.7z"/>
<path id="XMLID_3_" class="st3" d="M364.5,43.3l-73,73.8c-5.6,5.7-5.6,14.9,0.1,20.6c5.6,5.7,14.8,5.6,20.4-0.1l73-73.8
	c5.6-5.7,5.6-14.9-0.1-20.6C379.2,37.6,370.1,37.6,364.5,43.3z"/>
<path id="XMLID_2_" class="st3" d="M480.4,220.4l-107.6,24.6c-7.8,1.8-12.6,9.5-10.9,17.4c1.7,7.8,9.5,12.8,17.2,11l107.6-24.6
	c7.8-1.8,12.6-9.5,10.9-17.4C495.8,223.6,488.1,218.6,480.4,220.4z"/>
<path id="XMLID_1_" class="st3" d="M489.8,77.1L332.3,180.2c-6.7,4.4-8.6,13.4-4.2,20.1c4.3,6.7,13.2,8.6,19.9,4.3l157.5-103.1
	c6.7-4.4,8.6-13.4,4.2-20.1C505.3,74.6,496.4,72.7,489.8,77.1z"/>
</svg>
